<svg width="40" height="57" viewBox="0 0 40 57" fill="none" xmlns="http://www.w3.org/2000/svg">
<path d="M3.57416 1.90219C-0.210336 4.5011 -0.683282 12.2978 0.735904 19.055C1.68203 24.2528 4.04734 31.01 7.83184 37.2473C11.1433 43.4847 16.3468 48.6826 20.1313 51.8012C24.862 55.9595 31.9579 58.5583 35.2694 55.9594C37.1616 54.9199 39.5269 51.2814 40 50.7616C40 50.7616 38.5807 48.1628 38.1076 47.643L32.9041 38.8067C32.431 38.2869 30.0656 38.8067 28.6464 39.3264C26.7541 40.366 25.3352 42.9649 25.3352 42.9649C24.3891 43.4847 23.4428 42.9649 21.0775 41.9253C18.7122 40.8858 15.874 36.7275 13.5086 33.0891C11.6164 29.4506 9.25097 24.7725 9.25097 22.1736C9.25097 19.5747 8.77796 18.5352 10.1971 17.4956C10.1971 17.4956 13.0355 16.9758 14.9278 15.9363C15.8739 14.8967 17.7661 12.8176 17.2931 12.2978L12.0892 3.46155C11.6162 2.94177 10.1971 0.342827 10.1971 0.342827C9.25102 -0.696736 5.46641 0.862625 3.57416 1.90219Z" fill="white"/>
</svg>
