<?xml version="1.0" encoding="utf-8"?>
<!-- Generator: Adobe Illustrator 27.6.1, SVG Export Plug-In . SVG Version: 6.00 Build 0)  -->
<svg version="1.1" id="Vrstva_1" xmlns="http://www.w3.org/2000/svg" xmlns:xlink="http://www.w3.org/1999/xlink" x="0px" y="0px"
	 viewBox="0 0 633.4 550.2" style="enable-background:new 0 0 633.4 550.2;" xml:space="preserve">
<style type="text/css">
	.st0{fill:#804072;}
	.st1{fill:#86878B;}
</style>
<g id="Layer_1">
</g>
<g id="Layer_2">
	<g>
		<path class="st0" d="M143,250.1c2.4,8.6,4,15.8,4.9,20.4c0,9.3,0.3,21.9,1.4,36.9c0.9,12,1.8,24.4,4.6,39.7
			c2.1,11.8,5.8,28,12.7,46.8c3.9,10.5,9.1,22.1,16.2,34c22.9,38.4,53.9,61,74.3,73.1c-12.7-10.6-29.3-26.8-44.5-49.8
			c-16.1-24.4-24.7-47.4-29.4-63.9c-2.3-8.1-4.4-17-6.2-26.6c-1.6-8.9-2.8-17.3-3.5-25.1c-1.1-10.1-1.4-18.3-1.6-23.9
			c-0.4-14.6,0.4-21.3-0.4-35c-0.5-8.2-1.4-14.9-2.1-19.1c-1.2-4.6-3-10.9-5.2-18.5c-9.6-2.9-18.9-5.9-27.6-9
			C138.4,235.2,140.6,241.4,143,250.1z"/>
		<path class="st0" d="M321,116.7c6.4,1,11.6,0.7,15,0.3c3.4-0.5,6-1.2,11.2-2.8c2.5-0.7,3.9-1.2,3.8-1.5c-0.1-0.4-2.9-0.1-3.9,0
			c-2.1,0.2-12.8,1.1-22.9-1.2c0,0-4.4-1-10.7-3.6c-2.5,1.2-5,2.2-7.3,3.3c1.6,0.8,3.6,1.9,6.2,2.9C316,115.4,318.9,116.2,321,116.7
			z"/>
		<path class="st0" d="M433.5,243.7c-0.9,1.6-5.1,9.6-9.4,20.4c-2,5-4.5,12.2-6.3,21.1c-2.1,10.4-2.2,17.1-2.7,28.2
			c-0.3,5.9-0.3,3.6-2.8,38.4c-2.4,33.6-1.9,31.8-2.6,36.2c-2.2,12.4-6.2,23.5-14.5,39.8c-22.3,44-47.9,72.1-46.5,73.2
			c1,0.8,15.1-13.7,27.4-28.2c13-15.3,22.6-29.1,29.2-39.2c6-8.8,12.7-20.3,18.3-34.4c4-10.2,6.8-19.6,8.6-27.9
			c0.9-5.1,2.1-13,2.9-22.9c1.7-21.8-0.8-28.1,1.7-46.9c1.4-10.3,3.9-17.8,7-28.2c2.3-7.4,5.6-18.1,11.8-31.4c1-2.2,2.1-4.4,3.3-6.8
			c-8,2.6-16.2,5.1-24.8,7.4C433.8,243,433.6,243.3,433.5,243.7z"/>
		<path class="st0" d="M128.7,206.6c0.6,0.2,1.3,0.4,1.9,0.5c-0.7-0.3-1.3-0.5-2-0.8C128.6,206.4,128.7,206.5,128.7,206.6z"/>
		<path class="st0" d="M141,159.3c-1.6-6.6-3.2-17.2-1.6-29.9c1.5-12.2,5.4-21.6,8.3-27.6c3.3-5,9-12.3,17.9-18.8
			c11.2-8.2,22.2-11.3,28.6-12.7c12.1-1.8,21.9-0.9,28.6,0.2c12.9,2.1,22.1,6.5,33,11.7c10.2,4.9,18.4,9.8,24.5,13.9
			c4.6,3.1,9.5,5.7,14.3,8.4c2.2-1.2,4.3-2.4,6.4-3.6l-0.1-0.1c-3.8-3-7.9-5.7-11.6-8.8c-7.2-5.9-15.5-10.7-21.1-14.2
			c-16-9.9-30.4-14.8-40.3-17.3c-7.8-2-17.5-4.4-30.6-3.8c-10.5,0.5-19.1,2.7-24.9,4.6c-6.7,2.2-21.1,7.8-33.7,21.6
			c-12,13.1-16.5,27-18.2,33.8c-1.3,6.3-2.8,15.1-2.9,25.8c-0.1,3.7,0,12.5,2.6,27.9c0.8,4.9,1.8,9.6,2.8,14.1
			c8.1,2.4,16.7,4.7,25.9,7C146.3,183,143.5,172.1,141,159.3z"/>
		<g>
			<path class="st0" d="M484.7,161.5c1.6-19.9-0.8-36.4-3.5-47.9c-1.7-5.8-4.9-14-10.7-22.6c-5.9-8.8-12.5-14.8-17.3-18.5
				c-2.6-2.1-12.2-8.6-26.5-11.8c-12.6-2.8-23.1-1.6-29.4-0.4c-8.5,1.5-18.2,3.8-28.7,7.3c-11.2,3.7-20.9,8-28.9,12.2
				c-5.5,2.9-13.8,7.3-23.7,12.8c-5.9,3.2-10.4,5.9-15,8.5c-2.1,1.2-4.2,2.4-6.4,3.6c-3.6,2-7.6,4.2-12.5,6.9
				c0,0-11.6,6.2-27.8,12.3c-6.1,2.3-9.3,3-11.9,3.1c-8.4,0.5-15.1-2.7-19.1-5c0.4,1.2,1.3,3,3.1,4.6c1.8,1.6,3.7,2.2,5.1,2.6
				c9,2.4,17.4,1.3,17.4,1.3c9.6-1.3,17.2-3.6,23.6-5.7c10.1-3.4,17.9-6.5,22.9-8.6c3.3-1.4,7-2.9,11.1-4.8c2.3-1,4.8-2.1,7.3-3.3
				c3.9-1.8,8-3.7,12.3-5.8c4.6-2.1,11.4-5,19.9-8.2c13.5-5.2,25-9.6,40.2-12.4c5.3-1,11.8-1.9,19.8-2.1c5.5-0.1,9.5-0.2,14.5,0.8
				c10.1,2.1,17,7.3,19.6,9.4c16,12.3,20,31.6,20.8,36.5c2,21.1,0,37.9-2.3,49.4c-1.3,6.5-3,13-4.9,19.4c9.3-2.1,18.1-4.4,26.6-6.6
				C482.2,180.2,483.9,171.3,484.7,161.5z"/>
		</g>
		<path class="st0" d="M153.8,129.6c0.1-4.9,1-13,5.5-21.1c2.4-4.4,5.2-7.6,6.4-8.9c3.1-3.4,5.9-5.5,8.1-7.1c4-2.9,7.3-4.7,8.1-5.1
			c2.8-1.5,7.1-3.4,12.3-4.7c9.8-2.5,18.3-1.4,22.7-0.8c22.5,3,46.4,17.8,50.5,20.4c-5.4-2.4-24.1-10.3-43-10.2
			c-7.9,0-17.2,1.5-18.1,1.6c-4.4,0.7-9.1,1.4-14.9,3.5c-4.2,1.6-8.6,3.2-13.3,7c-5.4,4.4-8.1,9.3-9.4,11.7
			c-3.7,6.9-4.8,13.4-5.1,17.6"/>
		<path class="st0" d="M278.2,501C278.2,501.1,278.3,501.1,278.2,501c0.6,0-11-37.7-20.5-80c-4.6-20.3-9.6-36.2-4.8-52.4
			c3.4-11.5,10.2-20.4,10.2-20.4c5.8-7.5,12-11.8,14.4-13.4c12.5-8.1,25.1-9.2,31.3-9.3c8,0.8,24.2,3.5,35.2,16.2
			c10.8,12.5,11.1,28.3,10.5,44.9c-1.6,44.3-14.9,90.4-21.1,110.6c13.5-19.1,21.1-36.9,25.6-49.6c8.3-23.8,10.1-43.2,11.2-56.8
			c0-0.4,0.2-2.2,0.3-4.4c0.9-11.4,1.4-18.4,1.5-23.4c0.3-10.1,0.5-15.1-1-21.2c-3.4-13.9-12.9-22.6-16.6-26
			c-13.2-11.9-28-14.2-34.1-15c-20.1-2.6-35.6,4.5-43.3,8.1c-7.2,3.4-18.6,8.9-28.2,21.1c-12.4,15.8-13.8,32.9-14.6,42
			c-1.1,13.5,1.1,23.5,4.3,39.2c3,15,7.2,27.9,11.4,38.2C259.4,466.6,268.8,483.8,278.2,501z"/>
	</g>
</g>
<g>
	<g>
		<path class="st1" d="M314.1,205.2h-22c-4.7,0-8.5,3.8-8.5,8.5v49c0,4.7,3.8,8.5,8.5,8.5h22c4.7,0,8.5-3.8,8.5-8.5v-49
			C322.6,209,318.8,205.2,314.1,205.2z M309.6,246.2c0,1.7-1.4,3.1-3.1,3.1h-1.3h-5.6c-1.1,0-2.1-0.6-2.6-1.4
			c-0.3-0.5-0.5-1-0.5-1.6v-16c0-1.7,1.4-3.1,3.1-3.1h6.9c1.7,0,3.1,1.4,3.1,3.1V246.2z"/>
		<g>
			<path class="st1" d="M579.8,164.6c-2.2-5.9-109.4,54.9-267.6,56.5C151.7,222.8,42,162.6,39.9,168.5c-1.7,5,72.3,54.2,179.6,74
				c-0.3-0.5-0.5-1-0.5-1.6v-16c0-1.7,1.4-3.1,3.1-3.1h6.9c1.7,0,3.1,1.4,3.1,3.1v16c0,1.7-1.4,3.1-3.1,3.1h-1.3
				c26.7,4.5,55.3,7.1,85.3,6.7C465.5,248.9,582.1,170.9,579.8,164.6z M309.6,246.2c0,1.7-1.4,3.1-3.1,3.1h-1.3h-5.6
				c-1.1,0-2.1-0.6-2.6-1.4c-0.3-0.5-0.5-1-0.5-1.6v-16c0-1.7,1.4-3.1,3.1-3.1h6.9c1.7,0,3.1,1.4,3.1,3.1V246.2z M385.3,240.9
				c0,1.7-1.4,3.1-3.1,3.1h-1.3h-5.6c-1.1,0-2.1-0.6-2.6-1.4c-0.3-0.5-0.5-1-0.5-1.6v-16c0-1.7,1.4-3.1,3.1-3.1h6.9
				c1.7,0,3.1,1.4,3.1,3.1V240.9z"/>
			<g>
				<path class="st1" d="M387.4,202.5h-18.9c-4.7,0-8.5,3.8-8.5,8.5v43.8c0,4.7,3.8,8.5,8.5,8.5h18.9c4.7,0,8.5-3.8,8.5-8.5V211
					C395.9,206.3,392.1,202.5,387.4,202.5z M385.3,240.9c0,1.7-1.4,3.1-3.1,3.1h-1.3h-5.6c-1.1,0-2.1-0.6-2.6-1.4
					c-0.3-0.5-0.5-1-0.5-1.6v-16c0-1.7,1.4-3.1,3.1-3.1h6.9c1.7,0,3.1,1.4,3.1,3.1V240.9z"/>
			</g>
		</g>
	</g>
	<path class="st1" d="M235,202.5h-18.9c-4.7,0-8.5,3.8-8.5,8.5v43.8c0,4.7,3.8,8.5,8.5,8.5H235c4.7,0,8.5-3.8,8.5-8.5V211
		C243.5,206.3,239.7,202.5,235,202.5z M232.1,240.9c0,1.7-1.4,3.1-3.1,3.1h-6.9c-1.7,0-3.1-1.4-3.1-3.1v-16c0-1.7,1.4-3.1,3.1-3.1
		h6.9c1.7,0,3.1,1.4,3.1,3.1V240.9z"/>
</g>
</svg>
