<svg width="387" height="101" viewBox="0 0 387 101" fill="none" xmlns="http://www.w3.org/2000/svg">
<path d="M26.0433 45.5483C26.4803 47.1146 26.7717 48.4258 26.9356 49.2636C26.9356 50.9573 26.9903 53.252 27.1906 55.9838C27.3545 58.1693 27.5184 60.4276 28.0284 63.214C28.4108 65.363 29.0847 68.3134 30.3413 71.7373C31.0516 73.6495 31.9986 75.7621 33.2917 77.9294C37.4622 84.9228 43.1079 89.0387 46.8232 91.2424C44.5103 89.3119 41.4871 86.3615 38.7188 82.1728C35.7867 77.729 34.2205 73.5403 33.3645 70.5353C32.9456 69.0601 32.5632 67.4392 32.2354 65.6909C31.944 64.07 31.7254 62.5402 31.5979 61.1196C31.3976 59.2802 31.343 57.7868 31.3065 56.767C31.2337 54.108 31.3794 52.8878 31.2337 50.3927C31.1426 48.8994 30.9787 47.6791 30.8512 46.9142C30.6327 46.0765 30.3049 44.9291 29.9042 43.545C28.1559 43.0169 26.4621 42.4705 24.8777 41.9059C25.2055 42.8347 25.6062 43.9639 26.0433 45.5483Z" fill="#804072"/>
<path d="M58.4607 21.2535C59.6263 21.4356 60.5733 21.3809 61.1925 21.3081C61.8117 21.217 62.2852 21.0896 63.2323 20.7982C63.6876 20.6707 63.9425 20.5796 63.9243 20.525C63.9061 20.4521 63.3962 20.5068 63.214 20.525C62.8316 20.5614 60.8829 20.7253 59.0435 20.3064C59.0435 20.3064 58.2422 20.1243 57.0948 19.6508C56.6395 19.8693 56.1842 20.0515 55.7653 20.2518C56.0567 20.3975 56.421 20.5978 56.8945 20.7799C57.5501 21.0167 58.0782 21.1624 58.4607 21.2535Z" fill="#804072"/>
<path d="M78.9493 44.3828C78.7853 44.6742 78.0204 46.1311 77.2373 48.098C76.8731 49.0086 76.4178 50.3199 76.09 51.9408C75.7075 53.8348 75.6893 55.055 75.5982 57.0766C75.5436 58.1511 75.5436 57.7322 75.0883 64.07C74.6512 70.1892 74.7423 69.8614 74.6148 70.6628C74.2141 72.921 73.4856 74.9426 71.974 77.9111C67.9128 85.9244 63.2505 91.042 63.5054 91.2424C63.6876 91.3881 66.2555 88.7473 68.4955 86.1066C70.8631 83.3201 72.6115 80.8069 73.8135 78.9674C74.9062 77.3648 76.1264 75.2704 77.1463 72.7025C77.8747 70.8449 78.3847 69.1329 78.7125 67.6213C78.8764 66.6925 79.095 65.2538 79.2406 63.4508C79.5503 59.4806 79.0949 58.3332 79.5502 54.9093C79.8052 53.0335 80.2605 51.6676 80.8251 49.7735C81.244 48.4258 81.845 46.4771 82.9741 44.0549C83.1562 43.6543 83.3566 43.2536 83.5751 42.8165C82.1181 43.29 80.6248 43.7453 79.0585 44.1642C79.0039 44.2553 78.9675 44.3099 78.9493 44.3828Z" fill="#804072"/>
<path d="M23.4389 37.6261C23.5482 37.6625 23.6757 37.6989 23.785 37.7172C23.6575 37.6625 23.5482 37.6261 23.4207 37.5715C23.4207 37.5897 23.4389 37.6079 23.4389 37.6261Z" fill="#804072"/>
<path d="M25.679 29.0118C25.3876 27.8098 25.0962 25.8793 25.3876 23.5664C25.6608 21.3445 26.3711 19.6326 26.8992 18.5399C27.5002 17.6293 28.5383 16.2998 30.1592 15.116C32.1989 13.6226 34.2022 13.058 35.3678 12.8031C37.5715 12.4753 39.3563 12.6392 40.5765 12.8395C42.9258 13.222 44.6013 14.0233 46.5864 14.9703C48.4441 15.8627 49.9375 16.7551 51.0484 17.5018C51.8861 18.0664 52.7785 18.5399 53.6527 19.0316C54.0534 18.8131 54.4358 18.5945 54.8183 18.376L54.8001 18.3577C54.108 17.8114 53.3613 17.3197 52.6875 16.7551C51.3762 15.6806 49.8646 14.8064 48.8447 14.169C45.9308 12.366 43.3083 11.4736 41.5053 11.0183C40.0847 10.6541 38.3182 10.217 35.9324 10.3262C34.0201 10.4173 32.4539 10.818 31.3976 11.164C30.1774 11.5647 27.5548 12.5845 25.2601 15.0978C23.0747 17.4836 22.2551 20.015 21.9455 21.2535C21.7088 22.4008 21.4356 24.0035 21.4174 25.9522C21.3992 26.626 21.4174 28.2287 21.8909 31.0333C22.0366 31.9257 22.2187 32.7817 22.4008 33.6012C23.876 34.0383 25.4422 34.4572 27.1178 34.8761C26.6442 33.3281 26.1343 31.3429 25.679 29.0118Z" fill="#804072"/>
<path d="M88.2738 29.4125C88.5652 25.7883 88.1281 22.7833 87.6364 20.6889C87.3268 19.6326 86.744 18.1392 85.6877 16.573C84.6132 14.9703 83.4112 13.8776 82.537 13.2037C82.0635 12.8213 80.3152 11.6375 77.7109 11.0547C75.4161 10.5448 73.5039 10.7633 72.3565 10.9819C70.8085 11.255 69.0419 11.6739 67.1297 12.3113C65.0899 12.9852 63.3233 13.7683 61.8664 14.5332C60.8647 15.0614 59.3531 15.8627 57.5501 16.8644C56.4756 17.4471 55.6561 17.9389 54.8183 18.4124C54.4359 18.6309 54.0534 18.8495 53.6527 19.068C52.9971 19.4323 52.2686 19.8329 51.3762 20.3246C51.3762 20.3246 49.2636 21.4538 46.3133 22.5647C45.2023 22.9836 44.6196 23.1111 44.146 23.1293C42.6162 23.2204 41.396 22.6376 40.6675 22.2187C40.7404 22.4372 40.9043 22.7651 41.2321 23.0565C41.5599 23.3478 41.906 23.4571 42.1609 23.53C43.8 23.9671 45.3298 23.7667 45.3298 23.7667C47.0782 23.53 48.4623 23.1111 49.6279 22.7286C51.4673 22.1094 52.8878 21.5449 53.7984 21.1624C54.3994 20.9074 55.0733 20.6343 55.82 20.2882C56.2388 20.1061 56.6941 19.9058 57.1494 19.6872C57.8597 19.3594 58.6064 19.0134 59.3895 18.6309C60.2273 18.2485 61.4657 17.7203 63.0137 17.1375C65.4724 16.1905 67.5667 15.3892 70.335 14.8792C71.3002 14.6971 72.484 14.5332 73.941 14.4968C74.9426 14.4786 75.6711 14.4604 76.5817 14.6425C78.4211 15.0249 79.6778 15.972 80.1513 16.3544C83.0652 18.5945 83.7937 22.1094 83.9394 23.0018C84.3036 26.8446 83.9394 29.9042 83.5205 31.9986C83.2837 33.1824 82.9741 34.3661 82.6281 35.5317C84.3218 35.1493 85.9245 34.7304 87.4725 34.3297C87.8185 32.8181 88.1281 31.1972 88.2738 29.4125Z" fill="#804072"/>
<path d="M28.0101 23.6028C28.0283 22.7104 28.1923 21.2353 29.0118 19.7601C29.4489 18.9587 29.9588 18.376 30.1774 18.1392C30.7419 17.52 31.2519 17.1375 31.6525 16.8462C32.381 16.318 32.982 15.9902 33.1277 15.9173C33.6377 15.6442 34.4208 15.2981 35.3678 15.0614C37.1526 14.6061 38.7006 14.8064 39.5019 14.9157C43.5996 15.462 47.9523 18.1574 48.699 18.6309C47.7156 18.1938 44.3099 16.7551 40.8678 16.7733C39.4291 16.7733 37.7354 17.0465 37.5715 17.0647C36.7701 17.1922 35.9142 17.3197 34.8579 17.7021C34.093 17.9935 33.2916 18.2849 32.4357 18.977C31.4522 19.7783 30.9605 20.6707 30.7237 21.1078C30.0499 22.3644 29.8495 23.5482 29.7949 24.3131" fill="#804072"/>
<path d="M50.6659 91.2424C50.6841 91.2606 50.6659 91.2606 50.6659 91.2424C50.7752 91.2424 48.6626 84.3764 46.9325 76.6727C46.0947 72.9757 45.1841 70.08 46.0583 67.1296C46.6775 65.0352 47.9159 63.4144 47.9159 63.4144C48.9722 62.0485 50.1013 61.2653 50.5384 60.9739C52.8149 59.4988 55.1097 59.2984 56.2388 59.2802C57.6958 59.4259 60.6461 59.9176 62.6494 62.2306C64.6163 64.5071 64.671 67.3846 64.5617 70.4078C64.2703 78.4757 61.8481 86.8715 60.719 90.5503C63.1776 87.0718 64.5617 83.8301 65.3813 81.5171C66.8929 77.1827 67.2207 73.6495 67.421 71.1727C67.421 71.0998 67.4574 70.772 67.4756 70.3714C67.6395 68.2952 67.7306 67.0203 67.7488 66.1097C67.8035 64.2703 67.8399 63.3597 67.5667 62.2488C66.9475 59.7173 65.2173 58.1329 64.5435 57.5136C62.1395 55.3464 59.4441 54.9275 58.3332 54.7818C54.6726 54.3083 51.8497 55.6014 50.4474 56.257C49.1361 56.8762 47.0599 57.8779 45.3116 60.0998C43.0533 62.9773 42.7983 66.0915 42.6526 67.7488C42.4523 70.2074 42.853 72.0287 43.4357 74.8879C43.9821 77.6198 44.747 79.9691 45.5119 81.8449C47.2421 84.9774 48.954 88.1099 50.6659 91.2424Z" fill="#804072"/>
<path d="M57.204 37.3711H53.1974C52.3414 37.3711 51.6494 38.0632 51.6494 38.9191V47.8431C51.6494 48.699 52.3414 49.3911 53.1974 49.3911H57.204C58.06 49.3911 58.7521 48.699 58.7521 47.8431V38.9191C58.7521 38.0632 58.06 37.3711 57.204 37.3711ZM56.3845 44.8381C56.3845 45.1477 56.1295 45.4026 55.8199 45.4026H55.5832H54.5633C54.3629 45.4026 54.1808 45.2934 54.0898 45.1477C54.0351 45.0566 53.9987 44.9656 53.9987 44.8563V41.9423C53.9987 41.6327 54.2537 41.3778 54.5633 41.3778H55.8199C56.1295 41.3778 56.3845 41.6327 56.3845 41.9423V44.8381Z" fill="#86878B"/>
<path d="M105.593 29.977C105.193 28.9025 85.6695 39.9755 56.858 40.2668C27.6277 40.5765 7.64903 29.6128 7.26658 30.6873C6.95697 31.5979 20.4339 40.5582 39.9754 44.1642C39.9208 44.0732 39.8844 43.9821 39.8844 43.8728V40.9589C39.8844 40.6493 40.1393 40.3943 40.4489 40.3943H41.7056C42.0152 40.3943 42.2701 40.6493 42.2701 40.9589V43.8728C42.2701 44.1824 42.0152 44.4374 41.7056 44.4374H41.4688C46.3314 45.2569 51.5401 45.7305 57.0037 45.6576C84.7771 45.3298 106.012 31.1244 105.593 29.977ZM56.3845 44.8381C56.3845 45.1477 56.1295 45.4026 55.8199 45.4026H55.5831H54.5633C54.3629 45.4026 54.1808 45.2934 54.0898 45.1477C54.0351 45.0566 53.9987 44.9656 53.9987 44.8563V41.9424C53.9987 41.6327 54.2537 41.3778 54.5633 41.3778H55.8199C56.1295 41.3778 56.3845 41.6327 56.3845 41.9424V44.8381ZM70.171 43.8728C70.171 44.1824 69.916 44.4374 69.6064 44.4374H69.3697H68.3498C68.1495 44.4374 67.9673 44.3281 67.8763 44.1824C67.8216 44.0914 67.7852 44.0003 67.7852 43.891V40.9771C67.7852 40.6675 68.0402 40.4125 68.3498 40.4125H69.6064C69.916 40.4125 70.171 40.6675 70.171 40.9771V43.8728Z" fill="#86878B"/>
<path d="M70.5535 36.8794H67.1114C66.2554 36.8794 65.5634 37.5715 65.5634 38.4274V46.4043C65.5634 47.2603 66.2554 47.9523 67.1114 47.9523H70.5535C71.4094 47.9523 72.1015 47.2603 72.1015 46.4043V38.4274C72.1015 37.5715 71.4094 36.8794 70.5535 36.8794ZM70.171 43.8728C70.171 44.1824 69.916 44.4374 69.6064 44.4374H69.3697H68.3498C68.1495 44.4374 67.9673 44.3281 67.8763 44.1824C67.8217 44.0914 67.7852 44.0003 67.7852 43.891V40.9771C67.7852 40.6675 68.0402 40.4125 68.3498 40.4125H69.6064C69.916 40.4125 70.171 40.6675 70.171 40.9771V43.8728Z" fill="#86878B"/>
<path d="M42.7983 36.8794H39.3562C38.5002 36.8794 37.8082 37.5715 37.8082 38.4274V46.4043C37.8082 47.2603 38.5002 47.9523 39.3562 47.9523H42.7983C43.6542 47.9523 44.3463 47.2603 44.3463 46.4043V38.4274C44.3463 37.5715 43.6542 36.8794 42.7983 36.8794ZM42.2701 43.8728C42.2701 44.1824 42.0151 44.4374 41.7055 44.4374H40.4489C40.1393 44.4374 39.8843 44.1824 39.8843 43.8728V40.9589C39.8843 40.6493 40.1393 40.3943 40.4489 40.3943H41.7055C42.0151 40.3943 42.2701 40.6493 42.2701 40.9589V43.8728Z" fill="#86878B"/>
<path fill-rule="evenodd" clip-rule="evenodd" d="M113.263 42.343C111.078 42.343 109.06 41.9636 107.208 41.2048C105.387 40.4156 103.793 39.338 102.427 37.9721C101.686 37.214 101.033 36.3842 100.471 35.4829C102.005 34.5882 103.222 33.7848 104.086 33.1404C105.146 35.3369 106.551 37.0385 108.301 38.2453C110.061 39.4594 112.034 40.0665 114.22 40.0665C116.162 40.0665 117.862 39.5809 119.319 38.6095C120.806 37.6382 121.96 36.2723 122.779 34.5118C123.629 32.7513 124.054 30.6721 124.054 28.2742C124.054 25.3299 123.538 22.7651 122.506 20.5796C121.474 18.3638 120.078 16.6488 118.317 15.4347C116.587 14.2206 114.645 13.6135 112.489 13.6135C110.547 13.6135 108.817 14.0992 107.299 15.0705C105.812 16.0114 104.643 17.3622 103.793 19.1227C102.943 20.8831 102.518 22.9624 102.518 25.3603C102.518 26.6742 102.621 27.9155 102.827 29.0843C102.504 29.2063 102.153 29.3399 101.777 29.4836C100.847 29.8385 99.7554 30.2549 98.5121 30.7109C98.2387 29.4938 98.1019 28.2111 98.1019 26.8628C98.1019 24.6166 98.4813 22.5526 99.2402 20.6707C99.999 18.7888 101.061 17.1649 102.427 15.799C103.793 14.4027 105.387 13.3251 107.208 12.5663C109.06 11.7771 111.078 11.3825 113.263 11.3825C115.449 11.3825 117.467 11.7771 119.319 12.5663C121.171 13.3251 122.779 14.4027 124.145 15.799C125.511 17.1649 126.573 18.7888 127.332 20.6707C128.091 22.5526 128.471 24.6166 128.471 26.8628C128.471 29.1089 128.091 31.173 127.332 33.0549C126.573 34.9368 125.511 36.5759 124.145 37.9721C122.779 39.338 121.171 40.4156 119.319 41.2048C117.467 41.9636 115.449 42.343 113.263 42.343ZM131.414 41.8877V41.1592L135.056 39.338V14.3875L131.414 12.5663V11.8378H143.16C146.347 11.8378 148.852 12.5056 150.673 13.8412C152.524 15.1464 153.45 16.9524 153.45 19.2592C153.45 20.959 152.873 22.4919 151.72 23.8578C150.567 25.1933 149.034 26.2102 147.122 26.9083L155.772 39.5201L158.777 41.1592V41.8877H152.221L143.388 28.0921H139.154V39.2925L142.568 41.1592V41.8877H131.414ZM142.113 14.342H139.154V25.5879H142.386C144.299 25.5879 145.877 25.0567 147.122 23.9944C148.396 22.9017 149.034 21.5206 149.034 19.8511C149.034 18.1513 148.412 16.8158 147.167 15.8445C145.923 14.8428 144.238 14.342 142.113 14.342ZM163.666 41.1592V41.8877H176.869V41.1592L172.316 39.338V14.342H179.738L182.834 21.0349H183.562V11.8378H156.973V21.0349H157.701L160.797 14.342H168.219V39.338L163.666 41.1592ZM200.765 42.343C198.579 42.343 196.561 41.9636 194.709 41.2048C192.888 40.4156 191.295 39.338 189.929 37.9721C188.563 36.5759 187.5 34.9368 186.742 33.0549C185.983 31.173 185.603 29.1089 185.603 26.8628C185.603 24.6166 185.983 22.5526 186.742 20.6707C187.5 18.7888 188.563 17.1649 189.929 15.799C191.295 14.4027 192.888 13.3251 194.709 12.5663C196.561 11.7771 198.579 11.3825 200.765 11.3825C202.95 11.3825 204.969 11.7771 206.82 12.5663C208.672 13.3251 210.281 14.4027 211.647 15.799C213.012 17.1649 214.075 18.7888 214.834 20.6707C215.593 22.5526 215.972 24.6166 215.972 26.8628C215.972 29.1089 215.593 31.173 214.834 33.0549C214.075 34.9368 213.012 36.5759 211.647 37.9721C210.281 39.338 208.672 40.4156 206.82 41.2048C204.969 41.9636 202.95 42.343 200.765 42.343ZM201.721 40.0665C203.664 40.0665 205.363 39.5809 206.82 38.6095C208.308 37.6382 209.461 36.2723 210.281 34.5118C211.131 32.7513 211.556 30.6721 211.556 28.2742C211.556 25.3299 211.04 22.7651 210.007 20.5796C208.975 18.3638 207.579 16.6488 205.819 15.4347C204.089 14.2206 202.146 13.6135 199.991 13.6135C198.048 13.6135 196.318 14.0992 194.8 15.0705C193.313 16.0114 192.145 17.3622 191.295 19.1227C190.445 20.8831 190.02 22.9624 190.02 25.3603C190.02 28.3046 190.536 30.8846 191.568 33.1004C192.63 35.3162 194.042 37.0312 195.802 38.2453C197.563 39.4594 199.536 40.0665 201.721 40.0665ZM218.915 41.1592V41.8877H231.937C234.244 41.8877 236.368 41.4779 238.311 40.6584C240.284 39.8389 241.999 38.7006 243.456 37.2436C244.913 35.7867 246.036 34.0565 246.825 32.0532C247.645 30.0499 248.054 27.8644 248.054 25.4969C248.054 22.8865 247.432 20.5493 246.188 18.4852C244.973 16.4212 243.183 14.7973 240.815 13.6135C238.447 12.4297 235.594 11.8378 232.255 11.8378H218.915V12.5663L222.557 14.3875V39.338L218.915 41.1592ZM226.655 14.342H231.208C233.879 14.342 236.141 14.858 237.992 15.89C239.874 16.922 241.301 18.3942 242.272 20.3064C243.243 22.1883 243.729 24.389 243.729 26.9083C243.729 29.458 243.243 31.6738 242.272 33.5557C241.331 35.4073 239.965 36.849 238.174 37.8811C236.414 38.8827 234.319 39.3836 231.891 39.3836H226.655V14.342ZM266.865 42.343C264.68 42.343 262.661 41.9636 260.81 41.2048C258.989 40.4156 257.395 39.338 256.029 37.9721C254.663 36.5759 253.601 34.9368 252.842 33.0549C252.083 31.173 251.704 29.1089 251.704 26.8628C251.704 24.6166 252.083 22.5526 252.842 20.6707C253.601 18.7888 254.663 17.1649 256.029 15.799C257.395 14.4027 258.989 13.3251 260.81 12.5663C262.661 11.7771 264.68 11.3825 266.865 11.3825C269.051 11.3825 271.069 11.7771 272.921 12.5663C274.772 13.3251 276.381 14.4027 277.747 15.799C279.113 17.1649 280.175 18.7888 280.934 20.6707C281.693 22.5526 282.072 24.6166 282.072 26.8628C282.072 29.1089 281.693 31.173 280.934 33.0549C280.175 34.9368 279.113 36.5759 277.747 37.9721C276.381 39.338 274.772 40.4156 272.921 41.2048C271.069 41.9636 269.051 42.343 266.865 42.343ZM267.822 40.0665C269.764 40.0665 271.464 39.5809 272.921 38.6095C274.408 37.6382 275.562 36.2723 276.381 34.5118C277.231 32.7513 277.656 30.6721 277.656 28.2742C277.656 25.3299 277.14 22.7651 276.108 20.5796C275.076 18.3638 273.68 16.6488 271.919 15.4347C270.189 14.2206 268.246 13.6135 266.091 13.6135C264.149 13.6135 262.419 14.0992 260.901 15.0705C259.414 16.0114 258.245 17.3622 257.395 19.1227C256.545 20.8831 256.12 22.9624 256.12 25.3603C256.12 28.3046 256.636 30.8846 257.668 33.1004C258.731 35.3162 260.142 37.0312 261.903 38.2453C263.663 39.4594 265.636 40.0665 267.822 40.0665ZM284.788 41.1592V41.8877H296.17V41.1592L291.617 39.3836V18.3942L310.421 42.1154H312.106V14.342L315.703 12.5663V11.8378H304.366V12.5663L308.919 14.2965V33.6923L291.526 11.8378H284.833V12.5663L288.43 14.4786V39.338L284.788 41.1592ZM333.452 42.343C330.356 42.343 327.685 41.7056 325.438 40.4307C323.192 39.1559 321.462 37.4258 320.248 35.2403C319.034 33.0245 318.427 30.5052 318.427 27.6823C318.427 25.5272 318.837 23.4784 319.656 21.5357C320.506 19.5628 321.644 17.8175 323.071 16.2998C324.528 14.7821 326.197 13.5832 328.079 12.7029C329.991 11.8227 332.01 11.3825 334.135 11.3825C335.652 11.3825 336.942 11.4888 338.005 11.7012C339.067 11.8834 340.008 12.1414 340.828 12.4753C341.678 12.7788 342.527 13.143 343.377 13.568L343.605 21.5357H342.785L340.008 15.9811C338.855 15.1615 337.838 14.5696 336.958 14.2054C336.108 13.8412 335.136 13.659 334.044 13.659C331.858 13.659 329.9 14.2054 328.17 15.2981C326.47 16.3908 325.12 17.8933 324.118 19.8056C323.147 21.6875 322.661 23.8578 322.661 26.3164C322.661 29.2 323.132 31.6738 324.073 33.7378C325.044 35.7715 326.334 37.3347 327.943 38.4274C329.582 39.4898 331.388 40.021 333.361 40.021C335.03 40.021 336.426 39.7933 337.549 39.338C338.703 38.8524 339.72 38.3212 340.6 37.7445L343.332 32.8727H344.106L343.605 40.112C342.725 40.5673 341.814 40.9619 340.873 41.2958C339.963 41.6297 338.915 41.8877 337.732 42.0698C336.548 42.252 335.121 42.343 333.452 42.343ZM348.276 41.1592V41.8877H359.658V41.1592L356.016 39.338V14.3875L359.658 12.5663V11.8378H348.276V12.5663L351.918 14.3875V39.338L348.276 41.1592ZM362.602 41.8877V41.1592L366.244 39.338V14.3875L362.602 12.5663V11.8378H384.866V19.669H384.137L381.315 14.342H370.342V25.1326H378.082L380.358 21.3536H381.087V31.3247H380.358L378.082 27.6368H370.342V39.3836H382.589L385.412 33.6012H386.141V41.8877H362.602Z" fill="#86878B"/>
<path d="M136.692 87.9642V87.2357L140.334 85.4145V60.464L136.692 58.6428V57.9143H148.074V58.6428L144.432 60.464V71.2091H159.912V60.464L156.27 58.6428V57.9143H167.652V58.6428L164.01 60.464V85.4145L167.652 87.2357V87.9642H156.27V87.2357L159.912 85.4145V73.7133H144.432V85.4145L148.074 87.2357V87.9642H136.692Z" fill="#86878B"/>
<path d="M185.754 88.4195C183.568 88.4195 181.55 88.0401 179.698 87.2812C177.877 86.4921 176.283 85.4145 174.918 84.0486C173.552 82.6523 172.489 81.0133 171.73 79.1313C170.972 77.2494 170.592 75.1854 170.592 72.9393C170.592 70.6931 170.972 68.6291 171.73 66.7472C172.489 64.8652 173.552 63.2413 174.918 61.8754C176.283 60.4792 177.877 59.4016 179.698 58.6428C181.55 57.8536 183.568 57.459 185.754 57.459C187.939 57.459 189.958 57.8536 191.809 58.6428C193.661 59.4016 195.269 60.4792 196.635 61.8754C198.001 63.2413 199.064 64.8652 199.822 66.7472C200.581 68.6291 200.961 70.6931 200.961 72.9393C200.961 75.1854 200.581 77.2494 199.822 79.1313C199.064 81.0133 198.001 82.6523 196.635 84.0486C195.269 85.4145 193.661 86.4921 191.809 87.2812C189.958 88.0401 187.939 88.4195 185.754 88.4195ZM186.71 86.143C188.652 86.143 190.352 85.6573 191.809 84.686C193.297 83.7147 194.45 82.3488 195.269 80.5883C196.119 78.8278 196.544 76.7486 196.544 74.3507C196.544 71.4064 196.028 68.8415 194.996 66.6561C193.964 64.4403 192.568 62.7253 190.808 61.5112C189.077 60.2971 187.135 59.69 184.98 59.69C183.037 59.69 181.307 60.1756 179.789 61.1469C178.302 62.0879 177.133 63.4386 176.283 65.1991C175.434 66.9596 175.009 69.0388 175.009 71.4368C175.009 74.381 175.525 76.9611 176.557 79.1769C177.619 81.3927 179.03 83.1076 180.791 84.3218C182.551 85.5359 184.524 86.143 186.71 86.143Z" fill="#86878B"/>
<path d="M203.904 87.9642V87.2357L207.546 85.4145V60.464L203.904 58.6428V57.9143H217.244C220.583 57.9143 223.436 58.5062 225.804 59.69C228.171 60.8738 229.962 62.4977 231.176 64.5617C232.421 66.6257 233.043 68.963 233.043 71.5733C233.043 73.9409 232.633 76.1264 231.814 78.1297C231.025 80.133 229.902 81.8632 228.445 83.3201C226.988 84.7771 225.273 85.9153 223.3 86.7349C221.357 87.5544 219.232 87.9642 216.925 87.9642H203.904ZM216.197 60.4185H211.644V85.46H216.88C219.308 85.46 221.403 84.9592 223.163 83.9575C224.954 82.9255 226.32 81.4837 227.261 79.6322C228.232 77.7503 228.718 75.5345 228.718 72.9848C228.718 70.4654 228.232 68.2648 227.261 66.3829C226.289 64.4706 224.863 62.9985 222.981 61.9665C221.129 60.9345 218.868 60.4185 216.197 60.4185Z" fill="#86878B"/>
<path d="M251.854 88.4195C249.669 88.4195 247.65 88.0401 245.799 87.2812C243.977 86.4921 242.384 85.4145 241.018 84.0486C239.652 82.6523 238.59 81.0133 237.831 79.1313C237.072 77.2494 236.693 75.1854 236.693 72.9393C236.693 70.6931 237.072 68.6291 237.831 66.7472C238.59 64.8652 239.652 63.2413 241.018 61.8754C242.384 60.4792 243.977 59.4016 245.799 58.6428C247.65 57.8536 249.669 57.459 251.854 57.459C254.04 57.459 256.058 57.8536 257.91 58.6428C259.761 59.4016 261.37 60.4792 262.736 61.8754C264.102 63.2413 265.164 64.8652 265.923 66.7472C266.682 68.6291 267.061 70.6931 267.061 72.9393C267.061 75.1854 266.682 77.2494 265.923 79.1313C265.164 81.0133 264.102 82.6523 262.736 84.0486C261.37 85.4145 259.761 86.4921 257.91 87.2812C256.058 88.0401 254.04 88.4195 251.854 88.4195ZM252.81 86.143C254.753 86.143 256.453 85.6573 257.91 84.686C259.397 83.7147 260.55 82.3488 261.37 80.5883C262.22 78.8278 262.645 76.7486 262.645 74.3507C262.645 71.4064 262.129 68.8415 261.097 66.6561C260.065 64.4403 258.669 62.7253 256.908 61.5112C255.178 60.2971 253.235 59.69 251.08 59.69C249.138 59.69 247.407 60.1756 245.89 61.1469C244.402 62.0879 243.234 63.4386 242.384 65.1991C241.534 66.9596 241.109 69.0388 241.109 71.4368C241.109 74.381 241.625 76.9611 242.657 79.1769C243.719 81.3927 245.131 83.1076 246.891 84.3218C248.652 85.5359 250.625 86.143 252.81 86.143Z" fill="#86878B"/>
<path d="M269.777 87.9642V87.2357L273.419 85.4145V60.5551L269.822 58.6428V57.9143H276.515L293.908 79.7688V60.3729L289.355 58.6428V57.9143H300.692V58.6428L297.095 60.4185V88.1918H295.41L276.606 64.4706V85.46L281.159 87.2357V87.9642H269.777Z" fill="#86878B"/>
<path d="M302.971 87.9642V87.2357L306.613 85.4145V60.464L302.971 58.6428V57.9143H314.354V58.6428L310.711 60.464V85.4145L314.354 87.2357V87.9642H302.971ZM308.435 55.6378L312.396 48.7172H316.129C316.129 49.1725 316.038 49.643 315.856 50.1287C315.704 50.6143 315.294 51.1 314.627 51.5856L308.935 55.6378H308.435Z" fill="#86878B"/>
<path d="M317.069 87.9642V87.2357L320.712 85.4145V60.5551L317.115 58.6428V57.9143H323.808L341.2 79.7688V60.3729L336.647 58.6428V57.9143H347.984V58.6428L344.387 60.4185V88.1918H342.703L323.899 64.4706V85.46L328.452 87.2357V87.9642H317.069Z" fill="#86878B"/>
</svg>
