<svg width="387" height="101" viewBox="0 0 387 101" fill="none" xmlns="http://www.w3.org/2000/svg">
<path d="M26.1011 45.6497C26.5392 47.2194 26.8312 48.5336 26.9955 49.3732C26.9955 51.0707 27.0503 53.3705 27.2511 56.1084C27.4153 58.2987 27.5796 60.562 28.0907 63.3547C28.474 65.5085 29.1493 68.4654 30.4088 71.8969C31.1206 73.8134 32.0697 75.9307 33.3657 78.1028C37.5455 85.1117 43.2038 89.2368 46.9273 91.4454C44.6093 89.5106 41.5793 86.5537 38.8049 82.3556C35.8663 77.902 34.2966 73.7039 33.4387 70.6922C33.0189 69.2138 32.6356 67.5893 32.307 65.837C32.015 64.2126 31.7959 62.6793 31.6682 61.2556C31.4674 59.4121 31.4126 57.9154 31.3761 56.8933C31.3031 54.2284 31.4492 53.0055 31.3031 50.5049C31.2119 49.0082 31.0476 47.7852 30.9198 47.0186C30.7008 46.179 30.3722 45.0291 29.9707 43.6419C28.2184 43.1126 26.521 42.565 24.933 41.9992C25.2615 42.9301 25.6631 44.0617 26.1011 45.6497Z" fill="white"/>
<path d="M58.5907 21.3008C59.7589 21.4833 60.708 21.4285 61.3286 21.3555C61.9492 21.2643 62.4238 21.1365 63.3729 20.8444C63.8292 20.7167 64.0847 20.6254 64.0665 20.5707C64.0482 20.4976 63.5372 20.5524 63.3546 20.5707C62.9713 20.6072 61.0183 20.7714 59.1748 20.3516C59.1748 20.3516 58.3717 20.1691 57.2218 19.6945C56.7655 19.9136 56.3092 20.0961 55.8893 20.2969C56.1814 20.4429 56.5464 20.6437 57.021 20.8262C57.6781 21.0635 58.2074 21.2095 58.5907 21.3008Z" fill="white"/>
<path d="M79.1249 44.4815C78.9606 44.7736 78.194 46.2338 77.4091 48.2051C77.0441 49.1177 76.5878 50.4319 76.2592 52.0563C75.8759 53.9546 75.8577 55.1775 75.7664 57.2036C75.7116 58.2805 75.7116 57.8607 75.2553 64.2126C74.8173 70.3454 74.9085 70.0169 74.7808 70.82C74.3792 73.0833 73.6491 75.1093 72.1341 78.0845C68.0638 86.1156 63.3912 91.2446 63.6467 91.4454C63.8292 91.5914 66.4028 88.9448 68.6479 86.2982C71.0207 83.5055 72.773 80.9867 73.9776 79.1432C75.0728 77.5369 76.2957 75.4379 77.3179 72.8643C78.048 71.0025 78.559 69.2868 78.8876 67.7718C79.0519 66.8409 79.2709 65.399 79.4169 63.592C79.7272 59.6129 79.2709 58.463 79.7272 55.0315C79.9827 53.1515 80.4391 51.7826 81.0049 49.8843C81.4247 48.5336 82.027 46.5806 83.1587 44.153C83.3412 43.7514 83.542 43.3499 83.761 42.9118C82.3008 43.3864 80.8041 43.8427 79.2344 44.2625C79.1796 44.3538 79.1431 44.4085 79.1249 44.4815Z" fill="white"/>
<path d="M23.491 37.7098C23.6005 37.7463 23.7283 37.7828 23.8378 37.8011C23.7101 37.7463 23.6005 37.7098 23.4728 37.6551C23.4728 37.6733 23.491 37.6916 23.491 37.7098Z" fill="white"/>
<path d="M25.7361 29.0764C25.4441 27.8717 25.152 25.9369 25.4441 23.6188C25.7179 21.392 26.4297 19.6763 26.959 18.5811C27.5614 17.6685 28.6018 16.3361 30.2262 15.1496C32.2705 13.6529 34.2783 13.0871 35.4465 12.8316C37.655 12.503 39.4438 12.6673 40.6667 12.8681C43.0213 13.2514 44.7005 14.0545 46.6901 15.0036C48.5518 15.898 50.0485 16.7924 51.1619 17.5407C52.0016 18.1066 52.8959 18.5811 53.7721 19.0739C54.1736 18.8549 54.5569 18.6359 54.9402 18.4169L54.922 18.3986C54.2284 17.851 53.48 17.3582 52.8047 16.7924C51.4905 15.7155 49.9755 14.8393 48.9534 14.2005C46.033 12.3935 43.4046 11.4991 41.5976 11.0428C40.1739 10.6778 38.4034 10.2397 36.0123 10.3492C34.0958 10.4405 32.5261 10.842 31.4674 11.1888C30.2445 11.5904 27.6161 12.6125 25.3163 15.1314C23.126 17.5225 22.3046 20.0596 21.9943 21.3008C21.757 22.4507 21.4833 24.0569 21.465 26.0099C21.4467 26.6853 21.465 28.2915 21.9396 31.1024C22.0856 31.9968 22.2681 32.8546 22.4506 33.676C23.9291 34.1141 25.4988 34.5339 27.1781 34.9537C26.7035 33.4022 26.1924 31.4127 25.7361 29.0764Z" fill="white"/>
<path d="M88.4702 29.4779C88.7623 25.8457 88.3242 22.834 87.8314 20.7349C87.5211 19.6763 86.937 18.1796 85.8784 16.6098C84.8015 15.0036 83.5968 13.9085 82.7207 13.2331C82.2461 12.8498 80.4939 11.6634 77.8837 11.0793C75.5839 10.5682 73.6674 10.7873 72.5175 11.0063C70.966 11.2801 69.1955 11.6999 67.279 12.3387C65.2347 13.0141 63.4642 13.799 62.004 14.5656C61.0001 15.0949 59.4851 15.898 57.6781 16.9019C56.6012 17.486 55.7799 17.9788 54.9402 18.4534C54.5569 18.6724 54.1736 18.8914 53.7721 19.1105C53.115 19.4755 52.3849 19.8771 51.4905 20.3699C51.4905 20.3699 49.3732 21.5015 46.4163 22.6149C45.3029 23.0348 44.7188 23.1625 44.2442 23.1808C42.711 23.272 41.4881 22.688 40.758 22.2681C40.831 22.4872 40.9953 22.8157 41.3238 23.1078C41.6524 23.3998 41.9992 23.5093 42.2547 23.5823C43.8974 24.0204 45.4307 23.8196 45.4307 23.8196C47.1829 23.5823 48.5701 23.1625 49.7383 22.7792C51.5818 22.1586 53.0055 21.5928 53.9181 21.2095C54.5204 20.954 55.1958 20.6802 55.9441 20.3334C56.3639 20.1508 56.8203 19.9501 57.2766 19.731C57.9884 19.4025 58.7368 19.0557 59.5216 18.6724C60.3613 18.2891 61.6024 17.7598 63.1539 17.1757C65.618 16.2265 67.7171 15.4234 70.4914 14.9124C71.4588 14.7298 72.6452 14.5656 74.1055 14.5291C75.1093 14.5108 75.8394 14.4926 76.7521 14.6751C78.5956 15.0584 79.855 16.0075 80.3296 16.3908C83.25 18.6359 83.9801 22.1586 84.1261 23.053C84.4912 26.9043 84.1261 29.9707 83.7063 32.0698C83.469 33.2562 83.1587 34.4426 82.8119 35.6108C84.5094 35.2275 86.1156 34.8077 87.6671 34.4061C88.0139 32.8911 88.3242 31.2667 88.4702 29.4779Z" fill="white"/>
<path d="M28.0724 23.6553C28.0907 22.761 28.255 21.2825 29.0763 19.8041C29.5144 19.0009 30.0255 18.4169 30.2445 18.1796C30.8103 17.559 31.3214 17.1757 31.723 16.8836C32.4531 16.3543 33.0554 16.0258 33.2014 15.9528C33.7125 15.679 34.4974 15.3322 35.4465 15.0949C37.2352 14.6386 38.7867 14.8394 39.5898 14.9489C43.6967 15.4964 48.059 18.1978 48.8074 18.6724C47.8217 18.2343 44.4085 16.7924 40.9588 16.8106C39.5168 16.8106 37.8193 17.0844 37.6551 17.1027C36.8519 17.2304 35.9941 17.3582 34.9354 17.7415C34.1688 18.0336 33.3657 18.3256 32.5078 19.0192C31.5222 19.8223 31.0294 20.7167 30.7921 21.1547C30.1167 22.4142 29.916 23.6006 29.8612 24.3672" fill="white"/>
<path d="M50.7787 91.4454C50.7969 91.4636 50.7787 91.4636 50.7787 91.4454C50.8882 91.4454 48.7709 84.5642 47.0369 76.8433C46.1973 73.1381 45.2846 70.2359 46.1608 67.279C46.7813 65.1799 48.0225 63.5555 48.0225 63.5555C49.0812 62.1865 50.2128 61.4017 50.6509 61.1096C52.9325 59.6312 55.2323 59.4304 56.3639 59.4121C57.8241 59.5581 60.7811 60.051 62.7888 62.369C64.7601 64.6506 64.8149 67.5345 64.7054 70.5645C64.4133 78.6503 61.9857 87.0648 60.8541 90.7518C63.3182 87.2656 64.7054 84.0166 65.5267 81.6985C67.0417 77.3544 67.3702 73.8134 67.571 71.3311C67.571 71.258 67.6075 70.9295 67.6258 70.5279C67.7901 68.4472 67.8813 67.1695 67.8996 66.2568C67.9543 64.4133 67.9908 63.5007 67.717 62.3873C67.0965 59.8502 65.3625 58.2622 64.6871 57.6416C62.2778 55.4696 59.5764 55.0498 58.463 54.9037C54.7942 54.4292 51.9651 55.7251 50.5596 56.3822C49.2454 57.0028 47.1646 58.0067 45.4124 60.2335C43.1491 63.1174 42.8935 66.2386 42.7475 67.8996C42.5467 70.3637 42.9483 72.1889 43.5324 75.0546C44.08 77.7925 44.8466 80.1471 45.6132 82.0271C47.3472 85.1665 49.0629 88.306 50.7787 91.4454Z" fill="white"/>
<path d="M57.3313 37.4543H53.3158C52.4579 37.4543 51.7643 38.1479 51.7643 39.0058V47.9495C51.7643 48.8074 52.4579 49.501 53.3158 49.501H57.3313C58.1892 49.501 58.8828 48.8074 58.8828 47.9495V39.0058C58.8828 38.1479 58.1892 37.4543 57.3313 37.4543ZM56.51 44.9378C56.51 45.2481 56.2544 45.5037 55.9441 45.5037H55.7068H54.6847C54.4839 45.5037 54.3014 45.3942 54.2101 45.2481C54.1554 45.1569 54.1189 45.0656 54.1189 44.9561V42.0357C54.1189 41.7254 54.3744 41.4699 54.6847 41.4699H55.9441C56.2544 41.4699 56.51 41.7254 56.51 42.0357V44.9378Z" fill="white"/>
<path d="M105.828 30.0437C105.427 28.9668 85.8601 40.0644 56.9845 40.3564C27.6891 40.6667 7.66607 29.6787 7.28276 30.7556C6.97247 31.6682 20.4794 40.6485 40.0644 44.2625C40.0096 44.1712 39.9731 44.08 39.9731 43.9704V41.05C39.9731 40.7397 40.2287 40.4842 40.539 40.4842H41.7984C42.1087 40.4842 42.3642 40.7397 42.3642 41.05V43.9704C42.3642 44.2807 42.1087 44.5363 41.7984 44.5363H41.5611C46.4345 45.3576 51.6548 45.8322 57.1305 45.7592C84.9657 45.4307 106.248 31.1936 105.828 30.0437ZM56.51 44.9378C56.51 45.2481 56.2544 45.5037 55.9441 45.5037H55.7068H54.6847C54.4839 45.5037 54.3014 45.3941 54.2101 45.2481C54.1554 45.1569 54.1189 45.0656 54.1189 44.9561V42.0357C54.1189 41.7254 54.3744 41.4698 54.6847 41.4698H55.9441C56.2544 41.4698 56.51 41.7254 56.51 42.0357V44.9378ZM70.3271 43.9704C70.3271 44.2807 70.0716 44.5363 69.7613 44.5363H69.524H68.5019C68.3011 44.5363 68.1186 44.4268 68.0273 44.2807C67.9726 44.1895 67.9361 44.0982 67.9361 43.9887V41.0683C67.9361 40.758 68.1916 40.5025 68.5019 40.5025H69.7613C70.0716 40.5025 70.3271 40.758 70.3271 41.0683V43.9704Z" fill="white"/>
<path d="M70.7104 36.9615H67.2607C66.4028 36.9615 65.7092 37.6551 65.7092 38.5129V46.5076C65.7092 47.3654 66.4028 48.059 67.2607 48.059H70.7104C71.5683 48.059 72.2619 47.3654 72.2619 46.5076V38.5129C72.2619 37.6551 71.5683 36.9615 70.7104 36.9615ZM70.3271 43.9704C70.3271 44.2807 70.0716 44.5363 69.7613 44.5363H69.524H68.5019C68.3011 44.5363 68.1186 44.4268 68.0273 44.2807C67.9725 44.1895 67.936 44.0982 67.936 43.9887V41.0683C67.936 40.758 68.1916 40.5025 68.5019 40.5025H69.7613C70.0716 40.5025 70.3271 40.758 70.3271 41.0683V43.9704Z" fill="white"/>
<path d="M42.8935 36.9615H39.4438C38.5859 36.9615 37.8923 37.6551 37.8923 38.5129V46.5076C37.8923 47.3654 38.5859 48.059 39.4438 48.059H42.8935C43.7514 48.059 44.445 47.3654 44.445 46.5076V38.5129C44.445 37.6551 43.7514 36.9615 42.8935 36.9615ZM42.3642 43.9704C42.3642 44.2807 42.1087 44.5363 41.7984 44.5363H40.539C40.2287 44.5363 39.9731 44.2807 39.9731 43.9704V41.05C39.9731 40.7397 40.2287 40.4842 40.539 40.4842H41.7984C42.1087 40.4842 42.3642 40.7397 42.3642 41.05V43.9704Z" fill="white"/>
<path fill-rule="evenodd" clip-rule="evenodd" d="M113.515 42.4372C111.325 42.4372 109.302 42.057 107.446 41.2964C105.621 40.5055 104.024 39.4256 102.655 38.0566C101.912 37.2968 101.258 36.4652 100.694 35.5619C102.232 34.6652 103.452 33.86 104.317 33.2142C105.38 35.4155 106.788 37.1209 108.542 38.3304C110.306 39.5472 112.283 40.1557 114.474 40.1557C116.421 40.1557 118.124 39.6689 119.584 38.6955C121.075 37.722 122.231 36.353 123.052 34.5886C123.904 32.8242 124.33 30.7404 124.33 28.3371C124.33 25.3863 123.813 22.8157 122.779 20.6254C121.744 18.4047 120.345 16.6859 118.581 15.4691C116.847 14.2522 114.9 13.6438 112.74 13.6438C110.793 13.6438 109.059 14.1305 107.538 15.104C106.047 16.047 104.876 17.4008 104.024 19.1652C103.172 20.9296 102.746 23.0134 102.746 25.4167C102.746 26.7335 102.849 27.9776 103.055 29.149C102.732 29.2711 102.382 29.4047 102.005 29.5484L102.004 29.5491L102.003 29.5492L102.003 29.5492L102.003 29.5494C101.071 29.905 99.9771 30.3223 98.7313 30.7793C98.4572 29.5595 98.3202 28.2739 98.3202 26.9225C98.3202 24.6714 98.7005 22.6028 99.461 20.7167C100.222 18.8306 101.286 17.203 102.655 15.8341C104.024 14.4347 105.621 13.3548 107.446 12.5943C109.302 11.8033 111.325 11.4079 113.515 11.4079C115.706 11.4079 117.729 11.8033 119.584 12.5943C121.44 13.3548 123.052 14.4347 124.421 15.8341C125.79 17.203 126.855 18.8306 127.616 20.7167C128.376 22.6028 128.756 24.6714 128.756 26.9225C128.756 29.1737 128.376 31.2423 127.616 33.1284C126.855 35.0145 125.79 36.6572 124.421 38.0566C123.052 39.4256 121.44 40.5055 119.584 41.2964C117.729 42.057 115.706 42.4372 113.515 42.4372ZM131.706 41.9809V41.2508L135.357 39.4256V14.4195L131.706 12.5943V11.8642H143.479C146.673 11.8642 149.183 12.5334 151.008 13.8719C152.864 15.1801 153.792 16.9901 153.792 19.3021C153.792 21.0057 153.214 22.5419 152.058 23.9109C150.902 25.2494 149.365 26.2685 147.449 26.9682L156.119 39.6081L159.13 41.2508V41.9809H152.56L143.707 28.1546H139.463V39.3799L142.886 41.2508V41.9809H131.706ZM142.429 14.3739H139.463V25.6449H142.703C144.62 25.6449 146.202 25.1125 147.449 24.0478C148.727 22.9526 149.365 21.5685 149.365 19.8953C149.365 18.1917 148.742 16.8532 147.494 15.8797C146.247 14.8758 144.559 14.3739 142.429 14.3739ZM164.03 41.2508V41.9809H177.263V41.2508L172.7 39.4256V14.3739H180.138L183.241 21.0817H183.971V11.8642H157.322V21.0817H158.052L161.155 14.3739H168.593V39.4256L164.03 41.2508ZM201.212 42.4372C199.021 42.4372 196.998 42.057 195.143 41.2964C193.317 40.5055 191.72 39.4256 190.351 38.0566C188.982 36.6572 187.918 35.0145 187.157 33.1284C186.397 31.2423 186.016 29.1737 186.016 26.9225C186.016 24.6714 186.397 22.6028 187.157 20.7167C187.918 18.8306 188.982 17.203 190.351 15.8341C191.72 14.4347 193.317 13.3548 195.143 12.5943C196.998 11.8033 199.021 11.4079 201.212 11.4079C203.402 11.4079 205.425 11.8033 207.281 12.5943C209.136 13.3548 210.749 14.4347 212.118 15.8341C213.486 17.203 214.551 18.8306 215.312 20.7167C216.072 22.6028 216.452 24.6714 216.452 26.9225C216.452 29.1737 216.072 31.2423 215.312 33.1284C214.551 35.0145 213.486 36.6572 212.118 38.0566C210.749 39.4256 209.136 40.5055 207.281 41.2964C205.425 42.057 203.402 42.4372 201.212 42.4372ZM202.17 40.1557C204.117 40.1557 205.82 39.6689 207.281 38.6955C208.771 37.722 209.927 36.353 210.749 34.5886C211.6 32.8242 212.026 30.7404 212.026 28.3371C212.026 25.3863 211.509 22.8157 210.475 20.6254C209.44 18.4047 208.041 16.6859 206.277 15.4691C204.543 14.2522 202.596 13.6438 200.436 13.6438C198.489 13.6438 196.755 14.1305 195.234 15.104C193.743 16.047 192.572 17.4008 191.72 19.1652C190.868 20.9296 190.443 23.0134 190.443 25.4167C190.443 28.3675 190.96 30.9533 191.994 33.174C193.059 35.3948 194.473 37.1136 196.238 38.3304C198.002 39.5472 199.98 40.1557 202.17 40.1557ZM219.402 41.2508V41.9809H232.453C234.765 41.9809 236.894 41.5702 238.841 40.7489C240.818 39.9275 242.537 38.7867 243.997 37.3265C245.458 35.8663 246.583 34.1323 247.374 32.1245C248.196 30.1167 248.606 27.9264 248.606 25.5536C248.606 22.9374 247.983 20.595 246.735 18.5264C245.519 16.4577 243.724 14.8302 241.351 13.6438C238.978 12.4574 236.118 11.8642 232.772 11.8642H219.402V12.5943L223.053 14.4195V39.4256L219.402 41.2508ZM227.159 14.3739H231.723C234.4 14.3739 236.666 14.8911 238.522 15.9254C240.408 16.9597 241.838 18.4351 242.811 20.3516C243.785 22.2377 244.271 24.4432 244.271 26.9682C244.271 29.5235 243.785 31.7443 242.811 33.6304C241.868 35.486 240.499 36.931 238.704 37.9653C236.94 38.9692 234.841 39.4712 232.407 39.4712H227.159V14.3739ZM267.459 42.4372C265.269 42.4372 263.246 42.057 261.39 41.2964C259.565 40.5055 257.968 39.4256 256.599 38.0566C255.23 36.6572 254.165 35.0145 253.405 33.1284C252.644 31.2423 252.264 29.1737 252.264 26.9225C252.264 24.6714 252.644 22.6028 253.405 20.7167C254.165 18.8306 255.23 17.203 256.599 15.8341C257.968 14.4347 259.565 13.3548 261.39 12.5943C263.246 11.8033 265.269 11.4079 267.459 11.4079C269.649 11.4079 271.672 11.8033 273.528 12.5943C275.384 13.3548 276.996 14.4347 278.365 15.8341C279.734 17.203 280.799 18.8306 281.559 20.7167C282.32 22.6028 282.7 24.6714 282.7 26.9225C282.7 29.1737 282.32 31.2423 281.559 33.1284C280.799 35.0145 279.734 36.6572 278.365 38.0566C276.996 39.4256 275.384 40.5055 273.528 41.2964C271.672 42.057 269.649 42.4372 267.459 42.4372ZM268.417 40.1557C270.364 40.1557 272.068 39.6689 273.528 38.6955C275.019 37.722 276.175 36.353 276.996 34.5886C277.848 32.8242 278.274 30.7404 278.274 28.3371C278.274 25.3863 277.757 22.8157 276.722 20.6254C275.688 18.4047 274.289 16.6859 272.524 15.4691C270.79 14.2522 268.843 13.6438 266.683 13.6438C264.736 13.6438 263.002 14.1305 261.481 15.104C259.991 16.047 258.82 17.4008 257.968 19.1652C257.116 20.9296 256.69 23.0134 256.69 25.4167C256.69 28.3675 257.207 30.9533 258.242 33.174C259.306 35.3948 260.721 37.1136 262.485 38.3304C264.25 39.5472 266.227 40.1557 268.417 40.1557ZM285.422 41.2508V41.9809H296.829V41.2508L292.266 39.4712V18.4351L311.112 42.2091H312.8V14.3739L316.405 12.5943V11.8642H305.043V12.5943L309.606 14.3283V33.7673L292.175 11.8642H285.467V12.5943L289.072 14.5108V39.4256L285.422 41.2508ZM334.194 42.4372C331.091 42.4372 328.414 41.7984 326.163 40.5207C323.911 39.243 322.177 37.509 320.961 35.3187C319.744 33.098 319.135 30.5731 319.135 27.7439C319.135 25.584 319.546 23.5306 320.367 21.5837C321.219 19.6063 322.36 17.8571 323.79 16.336C325.25 14.815 326.923 13.6134 328.809 12.7312C330.726 11.849 332.749 11.4079 334.878 11.4079C336.399 11.4079 337.692 11.5143 338.757 11.7273C339.822 11.9098 340.765 12.1684 341.586 12.503C342.438 12.8072 343.29 13.1723 344.141 13.5982L344.37 21.5837H343.548L340.765 16.0166C339.609 15.1953 338.59 14.6021 337.707 14.237C336.856 13.872 335.882 13.6894 334.787 13.6894C332.597 13.6894 330.634 14.237 328.9 15.3322C327.197 16.4273 325.843 17.9331 324.839 19.8497C323.866 21.7358 323.379 23.9109 323.379 26.375C323.379 29.265 323.851 31.7443 324.794 33.8129C325.767 35.8511 327.06 37.4178 328.672 38.5129C330.315 39.5777 332.125 40.11 334.102 40.11C335.776 40.11 337.175 39.8819 338.301 39.4256C339.457 38.9388 340.476 38.4065 341.358 37.8285L344.096 32.9459H344.871L344.37 40.2013C343.487 40.6576 342.575 41.0531 341.632 41.3877C340.719 41.7223 339.669 41.9809 338.483 42.1634C337.297 42.346 335.867 42.4372 334.194 42.4372ZM349.051 41.2508V41.9809H360.459V41.2508L356.808 39.4256V14.4195L360.459 12.5943V11.8642H349.051V12.5943L352.701 14.4195V39.4256L349.051 41.2508ZM363.409 41.9809V41.2508L367.059 39.4256V14.4195L363.409 12.5943V11.8642H385.722V19.7128H384.992L382.163 14.3739H371.166V25.1885H378.923L381.205 21.4011H381.935V31.3944H381.205L378.923 27.6983H371.166V39.4712H383.441L386.27 33.676H387V41.9809H363.409Z" fill="white"/>
<path d="M136.996 88.1599V87.4298L140.646 85.6046V60.5985L136.996 58.7733V58.0432H148.404V58.7733L144.753 60.5985V71.3676H160.268V60.5985L156.617 58.7733V58.0432H168.025V58.7733L164.375 60.5985V85.6046L168.025 87.4298V88.1599H156.617V87.4298L160.268 85.6046V73.8773H144.753V85.6046L148.404 87.4298V88.1599H136.996Z" fill="white"/>
<path d="M186.167 88.6162C183.977 88.6162 181.954 88.236 180.098 87.4754C178.273 86.6845 176.676 85.6046 175.307 84.2356C173.938 82.8363 172.873 81.1935 172.113 79.3074C171.352 77.4213 170.972 75.3527 170.972 73.1015C170.972 70.8504 171.352 68.7818 172.113 66.8957C172.873 65.0096 173.938 63.3821 175.307 62.0131C176.676 60.6137 178.273 59.5338 180.098 58.7733C181.954 57.9823 183.977 57.5869 186.167 57.5869C188.357 57.5869 190.38 57.9823 192.236 58.7733C194.092 59.5338 195.704 60.6137 197.073 62.0131C198.442 63.3821 199.507 65.0096 200.267 66.8957C201.028 68.7818 201.408 70.8504 201.408 73.1015C201.408 75.3527 201.028 77.4213 200.267 79.3074C199.507 81.1935 198.442 82.8363 197.073 84.2356C195.704 85.6046 194.092 86.6845 192.236 87.4754C190.38 88.236 188.357 88.6162 186.167 88.6162ZM187.125 86.3347C189.072 86.3347 190.776 85.8479 192.236 84.8745C193.727 83.901 194.883 82.532 195.704 80.7676C196.556 79.0032 196.982 76.9194 196.982 74.5161C196.982 71.5653 196.465 68.9947 195.43 66.8044C194.396 64.5837 192.997 62.8649 191.232 61.6481C189.498 60.4312 187.551 59.8228 185.391 59.8228C183.444 59.8228 181.71 60.3095 180.189 61.283C178.699 62.2261 177.527 63.5798 176.676 65.3442C175.824 67.1086 175.398 69.1925 175.398 71.5957C175.398 74.5465 175.915 77.1323 176.949 79.3531C178.014 81.5738 179.429 83.2926 181.193 84.5094C182.958 85.7262 184.935 86.3347 187.125 86.3347Z" fill="white"/>
<path d="M204.358 88.1599V87.4298L208.008 85.6046V60.5985L204.358 58.7733V58.0432H217.728C221.074 58.0432 223.933 58.6364 226.306 59.8228C228.679 61.0092 230.474 62.6367 231.691 64.7054C232.938 66.774 233.562 69.1164 233.562 71.7326C233.562 74.1054 233.151 76.2957 232.33 78.3035C231.539 80.3113 230.413 82.0453 228.953 83.5055C227.493 84.9657 225.774 86.1065 223.797 86.9279C221.85 87.7492 219.72 88.1599 217.408 88.1599H204.358ZM216.678 60.5529H212.115V85.6502H217.363C219.796 85.6502 221.895 85.1482 223.66 84.1444C225.455 83.11 226.823 81.665 227.766 79.8094C228.74 77.9233 229.227 75.7025 229.227 73.1472C229.227 70.6222 228.74 68.4167 227.766 66.5306C226.793 64.6141 225.363 63.1387 223.477 62.1044C221.621 61.0701 219.355 60.5529 216.678 60.5529Z" fill="white"/>
<path d="M252.415 88.6162C250.224 88.6162 248.201 88.236 246.346 87.4754C244.52 86.6845 242.923 85.6046 241.554 84.2356C240.185 82.8363 239.121 81.1935 238.36 79.3074C237.6 77.4213 237.219 75.3527 237.219 73.1015C237.219 70.8504 237.6 68.7818 238.36 66.8957C239.121 65.0096 240.185 63.3821 241.554 62.0131C242.923 60.6137 244.52 59.5338 246.346 58.7733C248.201 57.9823 250.224 57.5869 252.415 57.5869C254.605 57.5869 256.628 57.9823 258.484 58.7733C260.339 59.5338 261.952 60.6137 263.321 62.0131C264.689 63.3821 265.754 65.0096 266.515 66.8957C267.275 68.7818 267.656 70.8504 267.656 73.1015C267.656 75.3527 267.275 77.4213 266.515 79.3074C265.754 81.1935 264.689 82.8363 263.321 84.2356C261.952 85.6046 260.339 86.6845 258.484 87.4754C256.628 88.236 254.605 88.6162 252.415 88.6162ZM253.373 86.3347C255.32 86.3347 257.023 85.8479 258.484 84.8745C259.974 83.901 261.13 82.532 261.952 80.7676C262.803 79.0032 263.229 76.9194 263.229 74.5161C263.229 71.5653 262.712 68.9947 261.678 66.8044C260.643 64.5837 259.244 62.8649 257.48 61.6481C255.746 60.4312 253.799 59.8228 251.639 59.8228C249.692 59.8228 247.958 60.3095 246.437 61.283C244.946 62.2261 243.775 63.5798 242.923 65.3442C242.071 67.1086 241.646 69.1925 241.646 71.5957C241.646 74.5465 242.163 77.1323 243.197 79.3531C244.262 81.5738 245.676 83.2926 247.441 84.5094C249.205 85.7262 251.183 86.3347 253.373 86.3347Z" fill="white"/>
<path d="M270.377 88.1599V87.4298L274.028 85.6046V60.6898L270.423 58.7733V58.0432H277.13L294.562 79.9463V60.5073L289.999 58.7733V58.0432H301.361V58.7733L297.756 60.5529V88.3881H296.067L277.222 64.6141V85.6502L281.785 87.4298V88.1599H270.377Z" fill="white"/>
<path d="M303.645 88.1599V87.4298L307.296 85.6046V60.5985L303.645 58.7733V58.0432H315.053V58.7733L311.403 60.5985V85.6046L315.053 87.4298V88.1599H303.645ZM309.121 55.7616L313.091 48.8256H316.833C316.833 49.2819 316.741 49.7535 316.559 50.2402C316.407 50.7269 315.996 51.2137 315.327 51.7004L309.623 55.7616H309.121Z" fill="white"/>
<path d="M317.775 88.1599V87.4298L321.425 85.6046V60.6898L317.82 58.7733V58.0432H324.528L341.96 79.9463V60.5073L337.396 58.7733V58.0432H348.759V58.7733L345.154 60.5529V88.3881H343.465L324.62 64.6141V85.6502L329.183 87.4298V88.1599H317.775Z" fill="white"/>
</svg>
