<svg width="19" height="27" viewBox="0 0 19 27" fill="none" xmlns="http://www.w3.org/2000/svg">
<path d="M1.69773 0.901036C-0.0999094 2.1321 -0.324559 5.82529 0.349555 9.02605C0.798964 11.4882 1.92249 14.6889 3.72012 17.6435C5.29305 20.598 7.76475 23.0602 9.56238 24.5374C11.8094 26.5071 15.18 27.7382 16.753 26.5071C17.6518 26.0147 18.7753 24.2912 19 24.045C19 24.045 18.3258 22.8139 18.1011 22.5677L15.6294 18.3821C15.4047 18.1359 14.2812 18.3821 13.607 18.6283C12.7082 19.1207 12.0342 20.3518 12.0342 20.3518C11.5848 20.598 11.1353 20.3518 10.0118 19.8594C8.8883 19.367 7.54013 17.3973 6.4166 15.6738C5.51779 13.9503 4.39421 11.7344 4.39421 10.5033C4.39421 9.27224 4.16953 8.77983 4.84364 8.28741C4.84364 8.28741 6.19187 8.04119 7.09069 7.54876C7.5401 7.05634 8.43892 6.07149 8.21421 5.82528L5.74238 1.63968C5.51768 1.39347 4.84364 0.162392 4.84364 0.162392C4.39424 -0.330033 2.59654 0.408612 1.69773 0.901036Z" fill="#814072"/>
</svg>
